<svg xmlns="http://www.w3.org/2000/svg" viewBox="0 0 64 64" fill="none" aria-hidden="true">
  <path
    fill="#ffffff"
    d="M32 6c3.2 0 5.8 1.3 8.2 4.1 1.7-3.4 5.1-5.8 9.8-5.8 3.2 0 5.7 1.2 7.4 3.6 1.4 2 1.7 4.5.9 7.3-.9 3.2-3.3 5.7-6.7 7.3l4 7.4c2.5 1.2 4.2 3.7 4.2 6.6 0 3.2-2 5.7-5 6.8V48c0 11.5-9.1 20-22.8 20S8.4 59.5 8.4 48v-4.7c-3-1.1-5-3.6-5-6.8 0-2.9 1.7-5.4 4.2-6.6l4-7.4C8.2 20.9 5.8 18.4 4.9 15.2c-.8-2.8-.5-5.3.9-7.3C7.5 5.5 10 4.3 13.2 4.3c4.7 0 8.1 2.4 9.8 5.8C25.4 7.3 28 6 32 6Zm-16.4 11.4c-1.7 0-3 .9-3.7 2.1-.6 1-.5 2.2.1 3.4.9 2 3 3.6 5.9 4.8l1.5.5 3.3-6.6c-2.1-2.1-4.6-4.2-7.1-4.2Zm32.8 0c-2.5 0-5 2.1-7.1 4.2l3.3 6.6 1.5-.5c2.9-1.2 5-2.8 5.9-4.8.6-1.2.7-2.4.1-3.4-.7-1.2-2-2.1-3.7-2.1zM19.2 34.2l-3.3 5.7c-1.3.8-2.1 2.1-2.1 3.7 0 1.4.8 2.5 2.1 3h3.3v-5c0-2.8.9-5.3 2.1-7.4h-2.1zm25.6 0c1.2 2.1 2.1 4.6 2.1 7.4v5h3.3c1.3-.5 2.1-1.6 2.1-3 0-1.6-.8-2.9-2.1-3.7l-3.3-5.7h-2.1zM32 58.2c9.1 0 16.4-5.7 16.4-14.6V39.4H15.6v4.2c0 8.9 7.3 14.6 16.4 14.6z"
  />
</svg>
