<svg xmlns="http://www.w3.org/2000/svg" viewBox="0 0 24 24" role="img"><title>Instagram</title><defs><radialGradient id="g" cx="30%" cy="107%" r="150%"><stop offset="0%" stop-color="#fdf497"/><stop offset="5%" stop-color="#fdf497"/><stop offset="45%" stop-color="#fd5949"/><stop offset="60%" stop-color="#d6249f"/><stop offset="90%" stop-color="#285AEB"/></radialGradient></defs><circle cx="12" cy="12" r="12" fill="url(#g)"/><path fill="#fff" d="M12 7.2a4.8 4.8 0 1 0 4.8 4.8A4.8 4.8 0 0 0 12 7.2zm0 7.92A3.12 3.12 0 1 1 15.12 12 3.12 3.12 0 0 1 12 15.12zm5.04-8.16a1.2 1.2 0 1 1-1.2-1.2 1.2 1.2 0 0 1 1.2 1.2zM12 4.56c-2.02 0-2.27.01-3.07.04a5.12 5.12 0 0 0-3.41 1.27 5.12 5.12 0 0 0-1.27 3.41c-.03.8-.04 1.05-.04 3.07s.01 2.27.04 3.07a5.12 5.12 0 0 0 1.27 3.41 5.12 5.12 0 0 0 3.41 1.27c.8.03 1.05.04 3.07.04s2.27-.01 3.07-.04a5.12 5.12 0 0 0 3.41-1.27 5.12 5.12 0 0 0 1.27-3.41c.03-.8.04-1.05.04-3.07s-.01-2.27-.04-3.07a5.12 5.12 0 0 0-1.27-3.41 5.12 5.12 0 0 0-3.41-1.27c-.8-.03-1.05-.04-3.07-.04zm0 1.44c1.98 0 2.22.01 3 .04a3.68 3.68 0 0 1 2.45.91 3.68 3.68 0 0 1 .91 2.45c.03.78.04 1.02.04 3s-.01 2.22-.04 3a3.68 3.68 0 0 1-.91 2.45 3.68 3.68 0 0 1-2.45.91c-.78.03-1.02.04-3 .04s-2.22-.01-3-.04a3.68 3.68 0 0 1-2.45-.91 3.68 3.68 0 0 1-.91-2.45c-.03-.78-.04-1.02-.04-3s.01-2.22.04-3a3.68 3.68 0 0 1 .91-2.45 3.68 3.68 0 0 1 2.45-.91c.78-.03 1.02-.04 3-.04z"/></svg>
